<?xml version="1.0" encoding="UTF-8" standalone="no"?>
<svg
   xmlns:dc="http://purl.org/dc/elements/1.1/"
   xmlns:cc="http://creativecommons.org/ns#"
   xmlns:rdf="http://www.w3.org/1999/02/22-rdf-syntax-ns#"
   xmlns:svg="http://www.w3.org/2000/svg"
   xmlns="http://www.w3.org/2000/svg"
   viewBox="0 0 196.8 120.04"
   height="120.04"
   width="196.8"
   xml:space="preserve"
   id="svg2"
   version="1.1"><metadata
     id="metadata8"><rdf:RDF><cc:Work
         rdf:about=""><dc:format>image/svg+xml</dc:format><dc:type
           rdf:resource="http://purl.org/dc/dcmitype/StillImage" /></cc:Work></rdf:RDF></metadata><defs
     id="defs6"><clipPath
       id="clipPath20"
       clipPathUnits="userSpaceOnUse"><path
         id="path18"
         d="M 0,0 H 1476 V 900 H 0 Z" /></clipPath><clipPath
       id="clipPath26"
       clipPathUnits="userSpaceOnUse"><path
         id="path24"
         d="M 467.977,346.402 H 1009.11 V 900.344 H 467.977 Z" /></clipPath></defs><g
     transform="matrix(1.3333333,0,0,-1.3333333,0,120.04)"
     id="g10"><g
       transform="scale(0.1)"
       id="g12"><g
         id="g14"><g
           clip-path="url(#clipPath20)"
           id="g16"><g
             clip-path="url(#clipPath26)"
             id="g22"><path
               id="path28"
               style="fill:#636667;fill-opacity:1;fill-rule:nonzero;stroke:none"
               d="m 818.809,347.07 c -2.969,-0.199 -5.411,-0.492 -7.84,-0.492 -47.321,-0.027 -94.641,0.121 -141.949,-0.18 -7.18,-0.039 -9.75,1.704 -9.602,9.512 0.473,24.352 0.352,48.711 0.062,73.059 -0.203,17.902 -12.453,32.32 -28.902,34.91 -17.23,2.711 -33.168,-6.52 -38.359,-23.258 -1.891,-6.109 -1.989,-12.949 -2.059,-19.473 -0.23,-22.347 -0.301,-44.699 0.07,-67.046 0.098,-5.68 -1.371,-7.641 -6.902,-7.614 -36.109,0.141 -72.23,0.121 -108.348,0.012 -4.96,-0.012 -7.371,1.82 -6.96,7.07 0.16,1.989 0.007,4.012 0.007,6.012 0,176.508 0,353.02 0.012,529.527 0,11.231 0,11.231 10.91,11.231 173.031,0.012 346.051,0.012 519.078,0 11.073,0 11.083,-0.012 11.083,-11.231 0,-177.078 0,-354.168 0,-531.25 0,-11.289 -0.01,-11.3 -11.09,-11.308 -33.309,-0.012 -66.629,0.16 -99.95,-0.141 -6.972,-0.058 -9.722,1.219 -9.543,9.379 0.543,24.621 0.231,49.27 -0.168,73.91 -0.332,19.992 -15.129,34.742 -34.199,34.781 -18.769,0.051 -34.41,-15.089 -34.742,-34.621 -0.43,-24.64 -0.109,-49.281 -0.16,-73.929 -0.008,-2.789 -0.278,-5.578 -0.449,-8.86 m -236.239,6.899 c 0.2,2.16 0.399,3.301 0.399,4.429 -0.008,22.641 0.191,45.282 -0.129,67.911 -0.402,27.98 22.258,48.972 48.539,44.562 20.398,-3.422 33.422,-18.98 35.09,-41.93 1.242,-17 11.969,-29.929 27.761,-33.453 14.708,-3.269 30.899,3.621 37.2,18.242 3.57,8.282 4.488,18.231 4.668,27.469 0.711,35.242 0.222,70.5 1.07,105.731 0.27,10.851 -4.219,17.75 -11.641,24.058 -27.797,23.641 -80.379,19.231 -98.976,-13.238 -2.621,-4.559 -5.5,-4.781 -8.051,-0.148 -16.66,30.296 -67.32,39.097 -97.812,12.597 -3.489,-3.027 -7.797,-5.09 -11.727,-7.597 0.398,4.929 0.09,10.046 1.289,14.769 29.84,117.469 140.801,195.879 261.141,179.039 33.359,-4.672 64.168,-16.121 92.937,-34.558 56.039,-35.922 90.692,-86.93 106.11,-152.204 0.562,-2.367 -1,-5.277 -1.68,-8.449 -7.449,5.742 -13,10.621 -19.098,14.61 -28.32,18.531 -66.73,10.992 -85.672,-16.977 -4.488,-6.633 -6.609,-4.5 -10.109,0.656 -22.859,33.653 -80.199,35.762 -105.078,3.774 -2.582,-3.313 -4.543,-8.172 -4.59,-12.34 -0.481,-40.973 -0.481,-81.934 -0.652,-122.902 -0.051,-12.379 5.968,-21.372 15.671,-27.668 23.09,-14.961 51.129,0.867 53.208,29.796 1.691,23.543 18.152,40.454 40.363,41.481 21.207,0.973 40.219,-14.84 42.207,-38.051 1.801,-21.019 0.64,-42.316 0.769,-63.488 0.043,-5.32 0.012,-10.641 0.012,-16.031 h 105.831 v 538.73 h -44.593 c 0,-8.238 0,-15.93 0,-23.617 -0.007,-6.301 0.321,-12.633 -0.179,-18.902 -0.188,-2.239 -2.368,-4.321 -3.637,-6.469 -1.063,2.019 -2.531,3.937 -3.063,6.09 -0.531,2.16 -0.128,4.558 -0.128,6.847 0,11.942 0,23.883 0,36.071 h -78.582 c 0,-6.2 0.3,-11.899 -0.168,-17.528 -0.161,-1.98 -2.192,-3.793 -3.372,-5.679 -1.097,1.976 -2.968,3.886 -3.128,5.937 -0.43,5.621 -0.153,11.301 -0.153,17.27 h -78.469 c 0,-8.489 0.231,-16.457 -0.148,-24.399 -0.102,-1.961 -2.152,-3.82 -3.312,-5.719 -1.129,1.938 -3.161,3.829 -3.25,5.821 -0.379,7.937 -0.161,15.898 -0.161,24.199 H 701.16 c 0,-6.93 0.289,-13.242 -0.172,-19.481 -0.148,-1.878 -2.398,-3.601 -3.687,-5.378 -1.012,1.769 -2.781,3.507 -2.883,5.339 -0.348,6.481 -0.141,13 -0.141,19.5 h -78.328 c 0,-6.382 0.25,-12.121 -0.14,-17.812 -0.121,-1.82 -1.93,-3.52 -2.961,-5.277 -1.258,1.796 -3.45,3.527 -3.598,5.429 -0.48,5.86 -0.172,11.789 -0.172,17.699 h -78.617 c 0,-14.039 0.199,-27.468 -0.172,-40.89 -0.07,-2.711 -2.309,-5.36 -3.551,-8.051 -1.058,2.602 -2.98,5.18 -3.039,7.801 -0.308,13.66 -0.14,27.332 -0.14,41.129 h -48.27 V 353.969 Z M 518.141,577.09 c 17.148,12.859 35.136,17.68 54.839,15.422 19.918,-2.274 36.661,-11.024 49.297,-27.313 28.563,36.61 89.641,37.539 118.684,0.34 29.109,37.59 90.969,35.902 117.84,-0.039 35.437,32.941 56.937,35.559 101.707,12.391 C 944.148,656.012 863,752.922 736.391,751.602 619,750.379 536.801,661.078 518.141,577.09 M 666.598,354.16 h 145.41 v 51.27 c -10.719,-12.571 -22.969,-18.91 -38.278,-17.45 -15.64,1.489 -26.492,10.5 -34.41,24.469 -7.8,-14.25 -18.679,-22.859 -34.109,-24.469 -15.473,-1.609 -27.731,5.231 -38.613,17.372 V 354.16" /><path
               id="path30"
               style="fill:#f4d289;fill-opacity:1;fill-rule:nonzero;stroke:none"
               d="m 518.137,577.086 c 18.66,83.992 100.859,173.293 218.25,174.512 126.609,1.32 207.769,-95.59 224.117,-173.711 -44.77,23.172 -66.258,20.551 -101.707,-12.391 -26.871,35.942 -88.731,37.633 -117.844,0.051 -29.039,37.191 -90.117,36.262 -118.668,-0.34 -12.648,16.289 -29.39,25.031 -49.308,27.309 -19.692,2.25 -37.692,-2.571 -54.84,-15.43" /><path
               id="path32"
               style="fill:#636667;fill-opacity:1;fill-rule:nonzero;stroke:none"
               d="m 881.809,510.297 c -0.051,-15.93 -12.09,-28.242 -27.653,-28.281 -15.699,-0.039 -28.461,13.109 -28.129,28.98 0.321,15.328 13.489,28.399 28.36,28.141 15.23,-0.262 27.468,-13.141 27.422,-28.84 m -7.114,-0.371 c 0.141,12.281 -8.316,21.601 -19.937,21.961 -11.653,0.347 -21.77,-9.571 -21.801,-21.403 -0.031,-11.578 9.379,-21.238 20.828,-21.379 11.922,-0.128 20.774,8.68 20.91,20.821" /><path
               id="path34"
               style="fill:#636667;fill-opacity:1;fill-rule:nonzero;stroke:none"
               d="m 624.453,482.047 c -15.59,0.187 -27.519,12.598 -27.43,28.539 0.079,15.66 12.54,28.519 27.719,28.59 15.18,0.058 28.469,-13.821 28.059,-29.321 -0.41,-15.699 -12.949,-27.992 -28.348,-27.808 m 0.449,7.047 c 11.309,0.07 20.969,9.851 20.981,21.25 0.008,11.929 -9.942,21.832 -21.641,21.531 -11.551,-0.281 -20.398,-9.801 -20.301,-21.801 0.11,-11.91 9.231,-21.039 20.961,-20.98" /><path
               id="path36"
               style="fill:#636667;fill-opacity:1;fill-rule:nonzero;stroke:none"
               d="m 530.441,706.344 c 0,-7.121 0.192,-14.25 -0.128,-21.36 -0.083,-1.812 -1.762,-3.55 -2.711,-5.32 -1.34,1.738 -3.809,3.449 -3.84,5.211 -0.321,15.09 -0.289,30.199 -0.039,45.289 0.031,1.66 2.129,3.289 3.269,4.93 1.149,-1.61 3.219,-3.172 3.289,-4.832 0.352,-7.957 0.16,-15.938 0.16,-23.918" /><path
               id="path38"
               style="fill:#636667;fill-opacity:1;fill-rule:nonzero;stroke:none"
               d="m 950.031,707.992 c 0.008,7.149 -0.242,14.309 0.168,21.43 0.11,1.949 2.18,3.777 3.352,5.668 1.148,-1.969 3.269,-3.91 3.308,-5.899 0.282,-14.582 0.301,-29.16 -0.019,-43.73 -0.039,-1.93 -2.418,-3.801 -3.719,-5.699 -1.031,1.98 -2.859,3.91 -2.949,5.937 -0.363,7.41 -0.152,14.864 -0.141,22.293" /><path
               id="path40"
               style="fill:#636667;fill-opacity:1;fill-rule:nonzero;stroke:none"
               d="m 871.414,829.434 c 0,-5.137 0.289,-10.297 -0.16,-15.387 -0.141,-1.684 -2.16,-3.192 -3.32,-4.774 -1.09,1.383 -3.09,2.731 -3.129,4.133 -0.262,11.41 -0.262,22.828 -0.024,34.239 0.032,1.468 1.922,2.902 2.953,4.351 1.219,-1.519 3.387,-2.98 3.508,-4.601 0.422,-5.961 0.172,-11.969 0.172,-17.961" /><path
               id="path42"
               style="fill:#636667;fill-opacity:1;fill-rule:nonzero;stroke:none"
               d="m 615.949,830.727 c 0,-5.422 0.262,-10.872 -0.148,-16.262 -0.129,-1.789 -1.961,-3.461 -3.008,-5.18 -1.23,1.52 -3.48,3 -3.523,4.551 -0.309,11.117 -0.309,22.269 -0.008,33.391 0.039,1.617 2.179,3.179 3.347,4.777 1.114,-1.668 3.051,-3.27 3.192,-5.02 0.422,-5.39 0.148,-10.839 0.148,-16.257" /><path
               id="path44"
               style="fill:#636667;fill-opacity:1;fill-rule:nonzero;stroke:none"
               d="m 530.363,794.547 c 0,-5.723 0.172,-11.449 -0.129,-17.152 -0.058,-1.309 -1.711,-2.528 -2.629,-3.79 -1.312,1.2 -3.722,2.379 -3.75,3.61 -0.3,11.43 -0.312,22.883 -0.042,34.312 0.031,1.278 2.339,2.5 3.589,3.75 1.012,-1.472 2.774,-2.902 2.871,-4.441 0.36,-5.41 0.141,-10.859 0.141,-16.289 h -0.051" /><path
               id="path46"
               style="fill:#636667;fill-opacity:1;fill-rule:nonzero;stroke:none"
               d="m 951.457,773.227 c -0.48,2.863 -1.32,5.722 -1.371,8.589 -0.168,9.454 -0.211,18.911 0.102,28.352 0.058,1.719 2.019,3.379 3.109,5.07 1.238,-1.601 3.488,-3.179 3.539,-4.82 0.32,-10.59 0.332,-21.191 0.012,-31.781 -0.051,-1.989 -2.012,-3.91 -3.09,-5.867 -0.762,0.16 -1.531,0.308 -2.301,0.457" /><path
               id="path48"
               style="fill:#636667;fill-opacity:1;fill-rule:nonzero;stroke:none"
               d="m 786.145,801.168 c 0,-4.551 0.308,-9.129 -0.161,-13.621 -0.179,-1.68 -2.191,-3.16 -3.359,-4.738 -1.102,1.41 -3.109,2.781 -3.152,4.211 -0.27,9.648 -0.27,19.32 0.043,28.968 0.039,1.321 2.257,2.571 3.476,3.852 1.031,-1.402 2.844,-2.723 2.961,-4.192 0.383,-4.8 0.141,-9.648 0.141,-14.48 h 0.051" /><path
               id="path50"
               style="fill:#636667;fill-opacity:1;fill-rule:nonzero;stroke:none"
               d="m 694.344,798.73 c 0.011,3.993 -0.211,8.012 0.129,11.973 0.113,1.277 1.703,2.418 2.613,3.617 1.309,-1.16 3.707,-2.277 3.758,-3.507 0.34,-8.25 0.308,-16.54 0.039,-24.801 -0.039,-1.129 -2.09,-2.192 -3.207,-3.289 -1.113,1.34 -3.024,2.59 -3.192,4.05 -0.441,3.938 -0.148,7.969 -0.14,11.957" /><path
               id="path52"
               style="fill:#636667;fill-opacity:1;fill-rule:nonzero;stroke:none"
               d="m 609.094,772.984 c 0,3.43 -0.321,6.911 0.148,10.27 0.199,1.43 2.071,2.609 3.18,3.91 1.133,-1.059 3.18,-2.078 3.223,-3.18 0.289,-7.699 0.296,-15.429 0.019,-23.129 -0.039,-1.07 -2.121,-2.851 -3.269,-2.859 -1.063,-0.012 -2.954,1.828 -3.071,3 -0.383,3.961 -0.14,7.988 -0.14,11.988 -0.032,0 -0.063,0 -0.09,0" /><path
               id="path54"
               style="fill:#636667;fill-opacity:1;fill-rule:nonzero;stroke:none"
               d="m 871.387,772.105 c 0,-3.421 0.332,-6.878 -0.149,-10.23 -0.211,-1.488 -2.031,-2.75 -3.121,-4.109 -1.148,1.308 -3.23,2.57 -3.289,3.929 -0.34,7.102 -0.34,14.239 -0.012,21.34 0.063,1.418 2.032,2.738 3.129,4.11 1.133,-1.309 3.051,-2.52 3.243,-3.961 0.46,-3.637 0.148,-7.379 0.148,-11.079 h 0.051" /><path
               id="path56"
               style="fill:#636667;fill-opacity:1;fill-rule:nonzero;stroke:none"
               d="m 692.613,843.242 c 1.789,4.801 4.239,12.59 4.707,12.457 7.184,-1.879 3.481,-8.238 3.614,-12.609 0.129,-4.539 -1.961,-9.141 -3.082,-13.707 -1.7,4.488 -3.399,8.988 -5.239,13.859" /><path
               id="path58"
               style="fill:#636667;fill-opacity:1;fill-rule:nonzero;stroke:none"
               d="m 785.633,853.57 v -19.242 c -1.953,0.102 -5.582,0.051 -5.602,0.332 -0.551,6.399 -2.66,13.129 1.532,18.899 1.359,0.011 2.707,0.011 4.07,0.011" /></g></g></g><g
         transform="scale(10)"
         id="g60"><text
           id="text64"
           style="font-variant:normal;font-weight:300;font-size:9px;font-family:Mukta;-inkscape-font-specification:Mukta-Light;writing-mode:lr-tb;fill:#171717;fill-opacity:1;fill-rule:nonzero;stroke:none"
           transform="matrix(1,0,0,-1,27.1723,16.8031)"><tspan
             id="tspan62"
             y="0"
             x="0 4.8959999 8.9099998 10.989 16.812 18.891001 23.337 28.233 33.831001 38.277 40.23 44.838001 49.284 53.739082 58.635082 64.233086 70.227081 73.971222 79.965218 85.356224 87.435219"></tspan></text>
</g></g></g></svg>