<?xml version="1.0" encoding="utf-8"?>
<!-- Generator: Adobe Illustrator 27.9.4, SVG Export Plug-In . SVG Version: 9.03 Build 54784)  -->
<svg version="1.1" id="Ebene_1" xmlns="http://www.w3.org/2000/svg" xmlns:xlink="http://www.w3.org/1999/xlink" x="0px" y="0px"
	 viewBox="0 0 595.28 841.89" style="enable-background:new 0 0 595.28 841.89;" xml:space="preserve">
<style type="text/css">
	.st0{clip-path:url(#SVGID_00000136389526241660412330000008392570785604922302_);fill:#221657;}
	.st1{clip-path:url(#SVGID_00000136389526241660412330000008392570785604922302_);fill:#F8D99F;}
</style>
<g>
	<defs>
		<rect id="SVGID_1_" x="264.94" y="391.11" width="65.04" height="59.95"/>
	</defs>
	<clipPath id="SVGID_00000149352934398486096070000015146368694498392202_">
		<use xlink:href="#SVGID_1_"  style="overflow:visible;"/>
	</clipPath>
	<path style="clip-path:url(#SVGID_00000149352934398486096070000015146368694498392202_);fill:#221657;" d="M288.81,450.22h17.48
		v-5.55c-1.29,1.36-2.76,2.05-4.6,1.89c-1.88-0.16-3.18-1.14-4.14-2.65c-0.94,1.54-2.24,2.47-4.1,2.65
		c-1.86,0.17-3.33-0.57-4.64-1.88V450.22z M270.97,426.09c2.06-1.39,4.22-1.91,6.59-1.67c2.39,0.25,4.41,1.19,5.93,2.95
		c3.43-3.96,10.77-4.06,14.26-0.04c3.5-4.07,10.93-3.88,14.16,0c4.26-3.56,6.84-3.85,12.23-1.34c-1.96-8.45-11.72-18.94-26.94-18.8
		C283.09,407.34,273.21,417,270.97,426.09 M278.71,450.24c0.02-0.23,0.05-0.36,0.05-0.48c0-2.45,0.02-4.9-0.02-7.35
		c-0.05-3.03,2.67-5.3,5.83-4.82c2.45,0.37,4.02,2.05,4.22,4.54c0.15,1.84,1.44,3.24,3.34,3.62c1.77,0.36,3.71-0.39,4.47-1.97
		c0.43-0.9,0.54-1.97,0.56-2.97c0.09-3.81,0.03-7.63,0.13-11.44c0.03-1.17-0.51-1.92-1.4-2.6c-3.34-2.56-9.66-2.08-11.9,1.43
		c-0.31,0.49-0.66,0.52-0.97,0.02c-2-3.28-8.09-4.23-11.76-1.36c-0.42,0.33-0.94,0.55-1.41,0.82c0.05-0.53,0.01-1.09,0.15-1.6
		c3.59-12.71,16.92-21.2,31.39-19.38c4.01,0.5,7.71,1.74,11.17,3.74c6.74,3.89,10.9,9.41,12.75,16.47c0.07,0.26-0.12,0.57-0.2,0.92
		c-0.9-0.62-1.56-1.15-2.3-1.58c-3.4-2.01-8.02-1.19-10.3,1.84c-0.54,0.72-0.79,0.49-1.21-0.07c-2.75-3.64-9.64-3.87-12.63-0.41
		c-0.31,0.36-0.55,0.89-0.55,1.34c-0.06,4.43-0.06,8.87-0.08,13.3c-0.01,1.34,0.72,2.31,1.88,2.99c2.77,1.62,6.15-0.09,6.4-3.22
		c0.2-2.55,2.18-4.38,4.85-4.49c2.55-0.11,4.83,1.61,5.07,4.12c0.22,2.27,0.08,4.58,0.09,6.87c0,0.58,0,1.15,0,1.74h12.72v-58.3
		h-5.36c0,0.89,0,1.72,0,2.56c0,0.68,0.04,1.37-0.02,2.04c-0.02,0.24-0.28,0.47-0.44,0.7c-0.13-0.22-0.3-0.43-0.37-0.66
		c-0.06-0.23-0.02-0.49-0.02-0.74c0-1.29,0-2.58,0-3.9h-9.45c0,0.67,0.04,1.29-0.02,1.9c-0.02,0.21-0.26,0.41-0.41,0.62
		c-0.13-0.21-0.36-0.42-0.38-0.64c-0.05-0.61-0.02-1.22-0.02-1.87h-9.43c0,0.92,0.03,1.78-0.02,2.64c-0.01,0.21-0.26,0.41-0.4,0.62
		c-0.14-0.21-0.38-0.42-0.39-0.63c-0.05-0.86-0.02-1.72-0.02-2.62h-9.39c0,0.75,0.04,1.43-0.02,2.11c-0.02,0.2-0.29,0.39-0.44,0.58
		c-0.12-0.19-0.33-0.38-0.35-0.58c-0.04-0.7-0.02-1.41-0.02-2.11h-9.41c0,0.69,0.03,1.31-0.02,1.93c-0.01,0.2-0.23,0.38-0.36,0.57
		c-0.15-0.2-0.41-0.38-0.43-0.59c-0.06-0.63-0.02-1.28-0.02-1.92h-9.45c0,1.52,0.02,2.97-0.02,4.42c-0.01,0.29-0.28,0.58-0.43,0.87
		c-0.13-0.28-0.36-0.56-0.36-0.85c-0.04-1.48-0.02-2.96-0.02-4.45h-5.8v58.3H278.71z M307.1,450.99c-0.36,0.02-0.65,0.05-0.94,0.05
		c-5.69,0-11.37-0.01-17.06,0.02c-0.86,0.01-1.17-0.18-1.15-1.03c0.06-2.63,0.04-5.27,0.01-7.91c-0.02-1.94-1.5-3.5-3.48-3.78
		c-2.07-0.29-3.99,0.71-4.61,2.52c-0.23,0.66-0.24,1.4-0.25,2.11c-0.03,2.42-0.04,4.84,0.01,7.26c0.01,0.61-0.17,0.83-0.83,0.82
		c-4.34-0.02-8.68-0.01-13.02,0c-0.6,0-0.89-0.2-0.84-0.76c0.02-0.22,0-0.43,0-0.65c0-19.1,0-38.2,0-57.31c0-1.22,0-1.22,1.31-1.22
		c20.8,0,41.59,0,62.39,0c1.33,0,1.33,0,1.33,1.22c0,19.16,0,38.33,0,57.49c0,1.22,0,1.22-1.33,1.22c-4,0-8.01-0.02-12.01,0.02
		c-0.84,0.01-1.17-0.13-1.15-1.02c0.07-2.66,0.03-5.33-0.02-8c-0.04-2.16-1.82-3.76-4.11-3.77c-2.26,0-4.14,1.63-4.18,3.75
		c-0.05,2.67-0.01,5.33-0.02,8C307.16,450.33,307.13,450.63,307.1,450.99"/>
	<path style="clip-path:url(#SVGID_00000149352934398486096070000015146368694498392202_);fill:#F8D99F;" d="M270.96,426.09
		c2.24-9.09,12.12-18.75,26.23-18.89c15.22-0.14,24.97,10.35,26.94,18.8c-5.38-2.51-7.96-2.22-12.23,1.34
		c-3.23-3.89-10.66-4.07-14.16-0.01c-3.49-4.02-10.83-3.92-14.26,0.04c-1.52-1.76-3.53-2.71-5.93-2.95
		C275.19,424.18,273.03,424.7,270.96,426.09"/>
	<path style="clip-path:url(#SVGID_00000149352934398486096070000015146368694498392202_);fill:#221657;" d="M313.82,433.36
		c0.02-1.33-1-2.34-2.4-2.38c-1.4-0.04-2.62,1.04-2.62,2.32c0,1.25,1.13,2.3,2.5,2.31C312.74,435.63,313.81,434.68,313.82,433.36
		 M314.68,433.32c-0.01,1.72-1.45,3.06-3.32,3.06c-1.89,0-3.42-1.42-3.38-3.13c0.04-1.66,1.62-3.08,3.41-3.05
		C313.21,430.23,314.68,431.62,314.68,433.32"/>
	<path style="clip-path:url(#SVGID_00000149352934398486096070000015146368694498392202_);fill:#221657;" d="M283.8,435.62
		c1.36-0.01,2.52-1.07,2.52-2.3c0-1.29-1.2-2.36-2.6-2.33c-1.39,0.03-2.45,1.06-2.44,2.36C281.29,434.63,282.39,435.62,283.8,435.62
		 M283.74,436.38c-1.87-0.02-3.31-1.36-3.3-3.09c0.01-1.7,1.51-3.09,3.33-3.09c1.82-0.01,3.42,1.49,3.37,3.17
		C287.1,435.07,285.6,436.4,283.74,436.38"/>
	<path style="clip-path:url(#SVGID_00000149352934398486096070000015146368694498392202_);fill:#221657;" d="M272.44,412.11
		c0,0.77,0.02,1.54-0.02,2.31c-0.01,0.2-0.21,0.38-0.33,0.58c-0.16-0.19-0.46-0.37-0.46-0.56c-0.04-1.63-0.04-3.27-0.01-4.9
		c0-0.18,0.26-0.36,0.39-0.53c0.14,0.17,0.39,0.34,0.4,0.52C272.47,410.38,272.44,411.24,272.44,412.11"/>
	<path style="clip-path:url(#SVGID_00000149352934398486096070000015146368694498392202_);fill:#221657;" d="M322.88,411.93
		c0-0.77-0.03-1.55,0.02-2.32c0.01-0.21,0.26-0.41,0.4-0.61c0.14,0.21,0.39,0.42,0.4,0.64c0.03,1.58,0.04,3.16,0,4.73
		c-0.01,0.21-0.29,0.41-0.45,0.62c-0.12-0.21-0.34-0.42-0.36-0.64C322.85,413.54,322.88,412.73,322.88,411.93"/>
	<path style="clip-path:url(#SVGID_00000149352934398486096070000015146368694498392202_);fill:#221657;" d="M313.43,398.78
		c0,0.56,0.03,1.11-0.02,1.67c-0.02,0.18-0.26,0.34-0.4,0.52c-0.13-0.15-0.37-0.3-0.38-0.45c-0.03-1.23-0.03-2.47,0-3.71
		c0-0.16,0.23-0.31,0.35-0.47c0.15,0.17,0.41,0.32,0.42,0.5C313.46,397.49,313.43,398.14,313.43,398.78"/>
	<path style="clip-path:url(#SVGID_00000149352934398486096070000015146368694498392202_);fill:#221657;" d="M282.72,398.64
		c0,0.59,0.03,1.18-0.02,1.76c-0.02,0.19-0.24,0.37-0.36,0.56c-0.15-0.16-0.42-0.32-0.42-0.49c-0.04-1.2-0.04-2.41,0-3.61
		c0.01-0.17,0.26-0.34,0.4-0.52c0.13,0.18,0.37,0.35,0.38,0.54C282.75,397.47,282.72,398.06,282.72,398.64"/>
	<path style="clip-path:url(#SVGID_00000149352934398486096070000015146368694498392202_);fill:#221657;" d="M272.43,402.56
		c0,0.62,0.02,1.24-0.01,1.86c-0.01,0.14-0.21,0.27-0.32,0.41c-0.16-0.13-0.45-0.26-0.45-0.39c-0.04-1.24-0.04-2.48,0-3.71
		c0-0.14,0.28-0.27,0.43-0.41c0.12,0.16,0.33,0.31,0.34,0.48C272.47,401.38,272.44,401.97,272.43,402.56L272.43,402.56z"/>
	<path style="clip-path:url(#SVGID_00000149352934398486096070000015146368694498392202_);fill:#221657;" d="M323.05,404.87
		c-0.06-0.31-0.16-0.62-0.16-0.93c-0.02-1.02-0.03-2.05,0.01-3.07c0.01-0.19,0.24-0.37,0.37-0.55c0.15,0.17,0.42,0.34,0.43,0.52
		c0.04,1.15,0.04,2.29,0,3.44c-0.01,0.21-0.24,0.42-0.37,0.63C323.23,404.9,323.14,404.88,323.05,404.87"/>
	<path style="clip-path:url(#SVGID_00000149352934398486096070000015146368694498392202_);fill:#221657;" d="M303.18,401.84
		c0,0.49,0.04,0.99-0.02,1.47c-0.02,0.18-0.26,0.34-0.4,0.51c-0.13-0.15-0.37-0.3-0.38-0.46c-0.03-1.04-0.03-2.09,0-3.14
		c0.01-0.14,0.27-0.28,0.42-0.42c0.12,0.15,0.34,0.29,0.36,0.45C303.2,400.8,303.17,401.32,303.18,401.84L303.18,401.84z"/>
	<path style="clip-path:url(#SVGID_00000149352934398486096070000015146368694498392202_);fill:#221657;" d="M292.14,402.11
		c0-0.43-0.02-0.87,0.02-1.3c0.01-0.14,0.2-0.26,0.31-0.39c0.16,0.13,0.45,0.25,0.45,0.38c0.04,0.89,0.04,1.79,0,2.68
		c0,0.12-0.25,0.24-0.39,0.36c-0.13-0.15-0.36-0.28-0.38-0.44C292.11,402.97,292.14,402.54,292.14,402.11"/>
	<path style="clip-path:url(#SVGID_00000149352934398486096070000015146368694498392202_);fill:#221657;" d="M281.9,404.89
		c0-0.37-0.04-0.75,0.02-1.11c0.02-0.15,0.25-0.28,0.38-0.42c0.14,0.11,0.38,0.23,0.39,0.34c0.03,0.83,0.04,1.67,0,2.5
		c-0.01,0.12-0.26,0.31-0.39,0.31c-0.13,0-0.36-0.2-0.37-0.32c-0.05-0.43-0.02-0.87-0.02-1.3
		C281.9,404.89,281.9,404.89,281.9,404.89"/>
	<path style="clip-path:url(#SVGID_00000149352934398486096070000015146368694498392202_);fill:#221657;" d="M313.42,404.99
		c0,0.37,0.04,0.74-0.02,1.11c-0.02,0.16-0.24,0.3-0.38,0.45c-0.14-0.14-0.39-0.28-0.4-0.42c-0.04-0.77-0.04-1.54,0-2.31
		c0.01-0.15,0.24-0.3,0.38-0.45c0.14,0.14,0.37,0.27,0.39,0.43C313.46,404.18,313.42,404.59,313.42,404.99L313.42,404.99z"/>
	<path style="clip-path:url(#SVGID_00000149352934398486096070000015146368694498392202_);fill:#221657;" d="M291.94,397.29
		c0.21-0.52,0.51-1.36,0.57-1.35c0.86,0.2,0.42,0.89,0.43,1.37c0.02,0.49-0.24,0.99-0.37,1.48
		C292.36,398.3,292.16,397.82,291.94,397.29"/>
	<path style="clip-path:url(#SVGID_00000149352934398486096070000015146368694498392202_);fill:#221657;" d="M303.12,396.17v2.08
		c-0.23-0.01-0.67-0.01-0.67-0.04c-0.07-0.69-0.32-1.42,0.18-2.05C302.79,396.17,302.95,396.17,303.12,396.17"/>
</g>
</svg>
