<?xml version="1.0" encoding="utf-8"?>
<!-- Generator: Adobe Illustrator 27.9.2, SVG Export Plug-In . SVG Version: 6.00 Build 0)  -->
<svg version="1.1" id="Ebene_2" xmlns="http://www.w3.org/2000/svg" xmlns:xlink="http://www.w3.org/1999/xlink" x="0px" y="0px"
	 viewBox="150 0 400 100" style="enable-background:new 0 0 406 192;" xml:space="preserve">
<style type="text/css">
	.st0{clip-path:url(#SVGID_00000088843249222583879540000006365520587198938040_);fill:#737372;}
	.st1{clip-path:url(#SVGID_00000088843249222583879540000006365520587198938040_);fill:#F8DAA1;}
</style>
<g>
	<g>
		<defs>
			<rect id="SVGID_1_" x="166.77" y="36.94" width="54.11" height="55.39"/>
		</defs>
		<clipPath id="SVGID_00000006685112731676951530000011837087865109299856_">
			<use xlink:href="#SVGID_1_"  style="overflow:visible;"/>
		</clipPath>
		<path style="clip-path:url(#SVGID_00000006685112731676951530000011837087865109299856_);fill:#737372;" d="M186.63,91.56h14.54
			v-5.13c-1.07,1.26-2.3,1.89-3.83,1.75c-1.56-0.15-2.65-1.05-3.44-2.45c-0.78,1.43-1.87,2.29-3.41,2.45
			c-1.55,0.16-2.77-0.52-3.86-1.74V91.56z M171.79,69.26c1.72-1.29,3.51-1.77,5.48-1.54c1.99,0.23,3.67,1.1,4.93,2.73
			c2.86-3.66,8.96-3.75,11.87-0.03c2.91-3.76,9.1-3.59,11.78,0c3.54-3.29,5.69-3.56,10.17-1.24c-1.64-7.81-9.75-17.5-22.41-17.37
			C181.87,51.93,173.65,60.86,171.79,69.26 M178.23,91.57c0.02-0.22,0.04-0.33,0.04-0.44c0-2.26,0.02-4.53-0.01-6.79
			c-0.04-2.8,2.23-4.9,4.85-4.46c2.04,0.34,3.34,1.9,3.51,4.19c0.12,1.7,1.2,2.99,2.78,3.35c1.47,0.33,3.09-0.36,3.72-1.82
			c0.36-0.83,0.45-1.82,0.47-2.75c0.07-3.52,0.02-7.05,0.11-10.57c0.03-1.08-0.42-1.77-1.16-2.41c-2.78-2.36-8.04-1.92-9.9,1.32
			c-0.26,0.46-0.55,0.48-0.8,0.02c-1.67-3.03-6.73-3.91-9.78-1.26c-0.35,0.3-0.78,0.51-1.17,0.76c0.04-0.49,0.01-1.01,0.13-1.48
			c2.98-11.75,14.08-19.59,26.11-17.9c3.34,0.47,6.42,1.61,9.29,3.46c5.6,3.59,9.07,8.69,10.61,15.22c0.06,0.24-0.1,0.53-0.17,0.85
			c-0.75-0.57-1.3-1.06-1.91-1.46c-2.83-1.85-6.67-1.1-8.57,1.7c-0.45,0.66-0.66,0.45-1.01-0.07c-2.29-3.36-8.02-3.58-10.51-0.38
			c-0.26,0.33-0.45,0.82-0.46,1.23c-0.05,4.1-0.05,8.19-0.07,12.29c-0.01,1.24,0.6,2.14,1.57,2.77c2.31,1.5,5.11-0.09,5.32-2.98
			c0.17-2.35,1.82-4.04,4.04-4.15c2.12-0.1,4.02,1.48,4.22,3.81c0.18,2.1,0.06,4.23,0.08,6.35c0,0.53,0,1.06,0,1.6h10.58V37.69
			h-4.46c0,0.82,0,1.59,0,2.36c0,0.63,0.03,1.26-0.02,1.89c-0.02,0.22-0.24,0.43-0.36,0.65c-0.11-0.2-0.25-0.39-0.31-0.61
			c-0.05-0.22-0.01-0.46-0.01-0.68c0-1.19,0-2.39,0-3.61h-7.86c0,0.62,0.03,1.19-0.02,1.75c-0.02,0.2-0.22,0.38-0.34,0.57
			c-0.11-0.2-0.3-0.39-0.31-0.59c-0.04-0.56-0.01-1.13-0.01-1.73h-7.85c0,0.85,0.02,1.65-0.01,2.44c-0.01,0.2-0.22,0.38-0.33,0.57
			c-0.11-0.19-0.32-0.38-0.32-0.58c-0.04-0.79-0.02-1.59-0.02-2.42h-7.81c0,0.69,0.03,1.32-0.02,1.95
			c-0.01,0.19-0.24,0.36-0.37,0.54c-0.1-0.18-0.28-0.35-0.29-0.53c-0.04-0.65-0.01-1.3-0.01-1.95h-7.83c0,0.64,0.02,1.21-0.01,1.78
			c-0.01,0.18-0.19,0.35-0.3,0.53c-0.13-0.18-0.35-0.35-0.36-0.54c-0.05-0.59-0.02-1.18-0.02-1.77h-7.86c0,1.4,0.02,2.75-0.02,4.09
			c-0.01,0.27-0.23,0.54-0.36,0.81c-0.11-0.26-0.3-0.52-0.3-0.78c-0.03-1.37-0.01-2.73-0.01-4.11h-4.83v53.88H178.23z M201.86,92.26
			c-0.3,0.02-0.54,0.05-0.78,0.05c-4.73,0-9.46-0.01-14.19,0.02c-0.72,0-0.98-0.17-0.96-0.95c0.05-2.44,0.04-4.87,0.01-7.31
			c-0.02-1.79-1.24-3.23-2.89-3.49c-1.72-0.27-3.32,0.65-3.84,2.33c-0.19,0.61-0.2,1.29-0.21,1.95c-0.02,2.24-0.03,4.47,0.01,6.71
			c0.01,0.57-0.14,0.76-0.69,0.76c-3.61-0.01-7.22-0.01-10.84,0c-0.5,0-0.74-0.18-0.7-0.71c0.02-0.2,0-0.4,0-0.6
			c0-17.65,0-35.3,0-52.95c0-1.12,0-1.12,1.09-1.12c17.3,0,34.6,0,51.91,0c1.11,0,1.11,0,1.11,1.12c0,17.71,0,35.42,0,53.12
			c0,1.13,0,1.13-1.11,1.13c-3.33,0-6.66-0.02-9.99,0.01c-0.7,0.01-0.97-0.12-0.95-0.94c0.05-2.46,0.02-4.93-0.02-7.39
			c-0.03-2-1.51-3.47-3.42-3.48c-1.88-0.01-3.44,1.51-3.47,3.46c-0.04,2.46-0.01,4.93-0.02,7.39
			C201.9,91.66,201.87,91.94,201.86,92.26"/>
		<path style="clip-path:url(#SVGID_00000006685112731676951530000011837087865109299856_);fill:#F8DAA1;" d="M171.79,69.26
			c1.87-8.4,10.09-17.33,21.82-17.45c12.66-0.13,20.78,9.56,22.41,17.37c-4.48-2.32-6.63-2.06-10.17,1.24
			c-2.69-3.59-8.87-3.76-11.78-0.01c-2.9-3.72-9.01-3.63-11.87,0.03c-1.26-1.63-2.94-2.5-4.93-2.73
			C175.3,67.5,173.5,67.98,171.79,69.26"/>
		<path style="clip-path:url(#SVGID_00000006685112731676951530000011837087865109299856_);fill:#737372;" d="M207.44,75.98
			c0.01-1.23-0.83-2.16-1.99-2.2c-1.16-0.04-2.18,0.96-2.18,2.14c0,1.16,0.94,2.12,2.08,2.14
			C206.54,78.07,207.43,77.19,207.44,75.98 M208.15,75.94c-0.01,1.59-1.21,2.82-2.76,2.83c-1.57,0-2.85-1.31-2.81-2.9
			c0.03-1.53,1.35-2.84,2.84-2.81C206.94,73.08,208.16,74.37,208.15,75.94"/>
		<path style="clip-path:url(#SVGID_00000006685112731676951530000011837087865109299856_);fill:#737372;" d="M182.46,78.06
			c1.13-0.01,2.1-0.99,2.1-2.12c0-1.19-0.99-2.18-2.16-2.15c-1.15,0.03-2.04,0.98-2.03,2.18C180.38,77.16,181.29,78.07,182.46,78.06
			 M182.42,78.77c-1.56-0.02-2.75-1.26-2.74-2.85c0.01-1.57,1.25-2.85,2.77-2.86c1.52-0.01,2.85,1.38,2.81,2.93
			C185.21,77.56,183.96,78.79,182.42,78.77"/>
		<path style="clip-path:url(#SVGID_00000006685112731676951530000011837087865109299856_);fill:#737372;" d="M173.02,56.34
			c0,0.71,0.02,1.42-0.01,2.14c-0.01,0.18-0.18,0.35-0.27,0.53c-0.13-0.17-0.38-0.34-0.38-0.52c-0.03-1.51-0.03-3.02,0-4.53
			c0-0.17,0.21-0.33,0.33-0.49c0.12,0.16,0.32,0.32,0.33,0.48C173.04,54.74,173.02,55.54,173.02,56.34"/>
		<path style="clip-path:url(#SVGID_00000006685112731676951530000011837087865109299856_);fill:#737372;" d="M214.98,56.17
			c0-0.72-0.02-1.43,0.02-2.14c0.01-0.19,0.22-0.38,0.34-0.57c0.12,0.2,0.33,0.39,0.33,0.59c0.03,1.46,0.03,2.92,0,4.37
			c0,0.19-0.24,0.38-0.37,0.57c-0.1-0.2-0.29-0.39-0.29-0.59C214.96,57.66,214.98,56.92,214.98,56.17"/>
		<path style="clip-path:url(#SVGID_00000006685112731676951530000011837087865109299856_);fill:#737372;" d="M207.12,44.03
			c0,0.51,0.03,1.03-0.02,1.54c-0.01,0.17-0.22,0.32-0.33,0.48c-0.11-0.14-0.31-0.27-0.31-0.41c-0.03-1.14-0.03-2.28,0-3.42
			c0-0.15,0.19-0.29,0.29-0.44c0.12,0.15,0.34,0.3,0.35,0.46C207.14,42.83,207.12,43.43,207.12,44.03"/>
		<path style="clip-path:url(#SVGID_00000006685112731676951530000011837087865109299856_);fill:#737372;" d="M181.57,43.9
			c0,0.54,0.03,1.09-0.01,1.63c-0.01,0.18-0.2,0.35-0.3,0.52c-0.12-0.15-0.35-0.3-0.35-0.46c-0.03-1.11-0.03-2.23,0-3.34
			c0-0.16,0.22-0.32,0.33-0.48c0.11,0.17,0.31,0.33,0.32,0.5C181.6,42.81,181.57,43.36,181.57,43.9"/>
		<path style="clip-path:url(#SVGID_00000006685112731676951530000011837087865109299856_);fill:#737372;" d="M173.01,47.52
			c0,0.57,0.02,1.15-0.01,1.72c-0.01,0.13-0.17,0.25-0.26,0.38c-0.13-0.12-0.37-0.24-0.38-0.36c-0.03-1.14-0.03-2.29,0-3.43
			c0-0.13,0.23-0.25,0.36-0.38c0.1,0.15,0.28,0.29,0.29,0.44C173.04,46.43,173.02,46.97,173.01,47.52L173.01,47.52z"/>
		<path style="clip-path:url(#SVGID_00000006685112731676951530000011837087865109299856_);fill:#737372;" d="M215.12,49.65
			c-0.05-0.29-0.13-0.57-0.14-0.86c-0.02-0.94-0.02-1.89,0.01-2.83c0.01-0.17,0.2-0.34,0.31-0.51c0.12,0.16,0.35,0.32,0.35,0.48
			c0.03,1.06,0.03,2.12,0,3.18c-0.01,0.2-0.2,0.39-0.31,0.59C215.27,49.68,215.2,49.66,215.12,49.65"/>
		<path style="clip-path:url(#SVGID_00000006685112731676951530000011837087865109299856_);fill:#737372;" d="M198.59,46.86
			c0,0.46,0.03,0.91-0.02,1.36c-0.02,0.17-0.22,0.32-0.34,0.47c-0.11-0.14-0.31-0.28-0.31-0.42c-0.03-0.97-0.03-1.93,0-2.9
			c0-0.13,0.23-0.26,0.35-0.39c0.1,0.14,0.28,0.27,0.3,0.42C198.61,45.89,198.58,46.37,198.59,46.86L198.59,46.86z"/>
		<path style="clip-path:url(#SVGID_00000006685112731676951530000011837087865109299856_);fill:#737372;" d="M189.41,47.1
			c0-0.4-0.02-0.8,0.01-1.2c0.01-0.13,0.17-0.24,0.26-0.36c0.13,0.12,0.37,0.23,0.38,0.35c0.03,0.83,0.03,1.65,0,2.48
			c0,0.11-0.21,0.22-0.32,0.33c-0.11-0.13-0.3-0.26-0.32-0.41C189.38,47.9,189.41,47.5,189.41,47.1"/>
		<path style="clip-path:url(#SVGID_00000006685112731676951530000011837087865109299856_);fill:#737372;" d="M180.88,49.67
			c0-0.34-0.03-0.69,0.01-1.03c0.02-0.14,0.21-0.26,0.32-0.39c0.11,0.11,0.32,0.21,0.32,0.32c0.03,0.77,0.03,1.54,0,2.31
			c0,0.11-0.21,0.28-0.33,0.29c-0.11,0-0.29-0.18-0.31-0.3C180.87,50.48,180.89,50.07,180.88,49.67
			C180.89,49.67,180.89,49.67,180.88,49.67"/>
		<path style="clip-path:url(#SVGID_00000006685112731676951530000011837087865109299856_);fill:#737372;" d="M207.11,49.76
			c0,0.34,0.03,0.69-0.01,1.02c-0.02,0.15-0.2,0.28-0.31,0.41c-0.11-0.13-0.32-0.26-0.33-0.39c-0.03-0.71-0.03-1.42,0-2.13
			c0.01-0.14,0.2-0.27,0.31-0.41c0.11,0.13,0.31,0.25,0.32,0.4C207.14,49.02,207.11,49.39,207.11,49.76L207.11,49.76z"/>
		<path style="clip-path:url(#SVGID_00000006685112731676951530000011837087865109299856_);fill:#737372;" d="M189.24,42.65
			c0.18-0.48,0.42-1.26,0.47-1.25c0.72,0.19,0.35,0.82,0.36,1.26c0.01,0.45-0.2,0.91-0.31,1.37
			C189.59,43.58,189.42,43.13,189.24,42.65"/>
		<path style="clip-path:url(#SVGID_00000006685112731676951530000011837087865109299856_);fill:#737372;" d="M198.54,41.61v1.92
			c-0.19-0.01-0.56-0.01-0.56-0.03c-0.06-0.64-0.27-1.31,0.15-1.89C198.27,41.61,198.4,41.61,198.54,41.61"/>
	</g>
</g>
</svg>
